# xmcd
#
# Track frame offsets:
#	225
#	19164
#	34067
#	52594
#	67395
#	81244
#	97765
#	113809
#	127620
#	140827
#	157291
#	171477
#	183895
#	201063
#	215772
#	232111
#
# Disc length: 3305 seconds
#
# Revision: 3
# Processed by: cddbd v1.5.2PL0 Copyright (c) Steve Scherf et al.
# Submitted via: EZCDAudioConverter 1.3.3.1
#
DISCID=e50ce610
DTITLE=Various Artist - 難忘的回憶 [CD2]
DYEAR=1998
DGENRE=Pop
TTITLE0=雷安娜 - 彩雲曲
TTITLE1=鄺美雲 - 再坐一會
TTITLE2=陳慧嫻 - 多少柔情多少夢
TTITLE3=譚詠麟、雷安娜 - 暫別
TTITLE4=溫拿 - 今天我非常寂寞
TTITLE5=許\冠傑 - 紙船
TTITLE6=陳麗斯 - 七月雨中
TTITLE7=陳秋霞 - 罌粟花
TTITLE8=區瑞強 - 雲外千峰
TTITLE9=蔡國權 - 不應再猶豫
TTITLE10=關菊英 - 我是痴情無限
TTITLE11=鍾鎮濤 - 不可以不想你
TTITLE12=將麗萍 - 我為你狂
TTITLE13=彭健新 - 二等良民
TTITLE14=蘇芮、虞戡平 - 請跟我來
TTITLE15=譚詠麟、張淑玲 - 愛火
EXTD=
EXTT0=
EXTT1=
EXTT2=
EXTT3=
EXTT4=
EXTT5=
EXTT6=
EXTT7=
EXTT8=
EXTT9=
EXTT10=
EXTT11=
EXTT12=
EXTT13=
EXTT14=
EXTT15=
PLAYORDER=
